<?xml version="1.0" encoding="UTF-8" standalone="no"?>
<!-- Created with Inkscape (http://www.inkscape.org/) -->

<svg
   xmlns:dc="http://purl.org/dc/elements/1.1/"
   xmlns:cc="http://creativecommons.org/ns#"
   xmlns:rdf="http://www.w3.org/1999/02/22-rdf-syntax-ns#"
   xmlns:svg="http://www.w3.org/2000/svg"
   xmlns="http://www.w3.org/2000/svg"
   xmlns:xlink="http://www.w3.org/1999/xlink"
   xmlns:sodipodi="http://sodipodi.sourceforge.net/DTD/sodipodi-0.dtd"
   xmlns:inkscape="http://www.inkscape.org/namespaces/inkscape"
   id="svg4358"
   version="1.1"
   inkscape:version="0.48.5 r10040"
   width="2592"
   height="1936"
   sodipodi:docname="2.svg">
  <metadata
     id="metadata4364">
    <rdf:RDF>
      <cc:Work
         rdf:about="">
        <dc:format>image/svg+xml</dc:format>
        <dc:type
           rdf:resource="http://purl.org/dc/dcmitype/StillImage" />
        <dc:title></dc:title>
      </cc:Work>
    </rdf:RDF>
  </metadata>
  <defs
     id="defs4362" />
  <sodipodi:namedview
     pagecolor="#ffffff"
     bordercolor="#666666"
     borderopacity="1"
     objecttolerance="10"
     gridtolerance="10"
     guidetolerance="10"
     inkscape:pageopacity="0"
     inkscape:pageshadow="2"
     inkscape:window-width="844"
     inkscape:window-height="614"
     id="namedview4360"
     showgrid="false"
     inkscape:zoom="0.68957521"
     inkscape:cx="1335.6245"
     inkscape:cy="2003.1116"
     inkscape:window-x="24"
     inkscape:window-y="0"
     inkscape:window-maximized="0"
     inkscape:current-layer="layer2"
     showguides="true"
     inkscape:guide-bbox="true" />
  <rect
     style="color:#000000;fill:#df000e;fill-opacity:1;fill-rule:nonzero;stroke:#000000;stroke-width:3;marker:none;visibility:visible;display:inline;overflow:visible;enable-background:accumulate;stroke-linecap:round;stroke-linejoin:round;stroke-miterlimit:4;stroke-opacity:1;stroke-dasharray:none;stroke-dashoffset:0"
     id="rect4660"
     width="58.006725"
     height="87.010086"
     x="81.209419"
     y="243.65378" />
  <rect
     style="color:#000000;fill:#80003f;fill-opacity:1;fill-rule:nonzero;stroke:#000000;stroke-width:3;stroke-linecap:round;stroke-linejoin:round;stroke-miterlimit:4;stroke-opacity:1;stroke-dasharray:none;stroke-dashoffset:0;marker:none;visibility:visible;display:inline;overflow:visible;enable-background:accumulate"
     id="rect4668"
     width="52.206055"
     height="72.508408"
     x="73.958572"
     y="364.01773" />
  <rect
     style="color:#000000;fill:#ff6600;fill-opacity:1;fill-rule:nonzero;stroke:#000000;stroke-width:3;stroke-linecap:round;stroke-linejoin:round;stroke-miterlimit:4;stroke-opacity:1;stroke-dasharray:none;stroke-dashoffset:0;marker:none;visibility:visible;display:inline;overflow:visible;enable-background:accumulate"
     id="rect4687"
     width="62.357231"
     height="88.460258"
     x="84.109749"
     y="453.92816" />
  <g
     inkscape:groupmode="layer"
     id="layer1"
     inkscape:label="Hinh"
     sodipodi:insensitive="true">
    <image
       width="2592"
       height="1936"
       xlink:href="file:///C:/Users/pc/Downloads/Documents/IMG_1201.JPG"
       id="image4366"
       x="-328"
       y="-2264"
       transform="matrix(0,1,-1,0,0,0)" />
  </g>
  <g
     inkscape:groupmode="layer"
     id="layer2"
     inkscape:label="Net"
     style="display:inline">
    <path
       style="color:#000000;fill:#c8b7b7;fill-opacity:1;fill-rule:nonzero;stroke:#000000;stroke-width:3;stroke-linecap:round;stroke-linejoin:round;stroke-miterlimit:4;stroke-opacity:1;stroke-dasharray:none;stroke-dashoffset:0;marker:none;visibility:visible;display:inline;overflow:visible;enable-background:accumulate"
       d="M 1577.783,813.56982 1574.8826,-53.630728 420.54876,-59.4314 423.4491,822.27083 z"
       id="path5695"
       inkscape:connector-curvature="0"
       sodipodi:nodetypes="cc" />
    <path
       style="color:#000000;fill:none;stroke:#000000;stroke-width:3;stroke-linecap:butt;stroke-linejoin:round;stroke-miterlimit:4;stroke-opacity:1;stroke-dasharray:none;stroke-dashoffset:0;marker:none;visibility:visible;display:inline;overflow:visible;enable-background:accumulate"
       d="m 1236.661,205.08475 223.5424,-184.576277 28.7119,-49.220339 0,-24.61017"
       id="path6103"
       inkscape:connector-curvature="0"
       sodipodi:nodetypes="cccc" />
    <path
       style="color:#000000;fill:none;stroke:#000000;stroke-width:3;stroke-linecap:butt;stroke-linejoin:round;stroke-miterlimit:4;stroke-opacity:1;stroke-dasharray:none;stroke-dashoffset:0;marker:none;visibility:visible;display:inline;overflow:visible;enable-background:accumulate"
       d="m 1564.7966,-55.372905 0,41.016949 -26.661,59.47458 -233.7966,235.847456 -71.6766,-35.9627 -2.1539,-109.95665 45.1186,-89.92811 149.7119,-104.59322"
       id="path5673"
       inkscape:connector-curvature="0"
       sodipodi:nodetypes="cccccccc" />
    <rect
       y="-55.187325"
       x="421.72635"
       height="874.19843"
       width="1705.423"
       id="rect4667"
       style="fill:none;stroke:#000000;stroke-width:2.51342726;stroke-linecap:round;stroke-linejoin:round;stroke-miterlimit:4;stroke-opacity:1;stroke-dasharray:none"
       inkscape:export-xdpi="90"
       inkscape:export-ydpi="90"
       inkscape:export-filename="C:\Users\pc\Downloads\Documents\04.png" />
    <rect
       inkscape:export-filename="C:\Users\pc\Downloads\Documents\02.png"
       inkscape:export-ydpi="90"
       inkscape:export-xdpi="90"
       style="fill:none;stroke:#000000;stroke-width:2.51342726;stroke-linecap:round;stroke-linejoin:round;stroke-miterlimit:4;stroke-opacity:1;stroke-dasharray:none"
       id="rect5533"
       width="1705.423"
       height="874.19843"
       x="421.72635"
       y="1224.5553" />
    <path
       style="color:#000000;fill:#ffffff;stroke:#000000;stroke-width:3;stroke-linecap:butt;stroke-linejoin:round;stroke-miterlimit:4;stroke-opacity:1;stroke-dasharray:none;stroke-dashoffset:0;marker:none;visibility:visible;display:inline;overflow:visible;enable-background:accumulate"
       d="m 1109.5085,787.52543 61.5254,8.20338 -38.9661,63.57627 53.322,8.20339 -145.6101,112.79661 10.2542,-147.66101 32.8136,10.25423 z"
       id="path5535"
       inkscape:connector-curvature="0"
       sodipodi:nodetypes="cccccccc" />
    <path
       style="color:#000000;fill:none;stroke:#000000;stroke-width:3;stroke-linecap:butt;stroke-linejoin:round;stroke-miterlimit:4;stroke-opacity:1;stroke-dasharray:none;stroke-dashoffset:0;marker:none;visibility:visible;display:inline;overflow:visible;enable-background:accumulate"
       d="M 1029.6194,-53.630691 1026.719,807.76919"
       id="path5681"
       inkscape:connector-curvature="0" />
    <path
       style="color:#000000;fill:none;stroke:#000000;stroke-width:3;stroke-linecap:butt;stroke-linejoin:round;stroke-miterlimit:4;stroke-opacity:1;stroke-dasharray:none;stroke-dashoffset:0;marker:none;visibility:visible;display:inline;overflow:visible;enable-background:accumulate"
       d="m 977.41333,-50.730354 0,858.499544"
       id="path5683"
       inkscape:connector-curvature="0" />
    <path
       style="color:#000000;fill:none;stroke:#000000;stroke-width:3;stroke-linecap:butt;stroke-linejoin:round;stroke-miterlimit:4;stroke-opacity:1;stroke-dasharray:none;stroke-dashoffset:0;marker:none;visibility:visible;display:inline;overflow:visible;enable-background:accumulate"
       d="m 948.40997,-62.3317 0,881.70223"
       id="path5685"
       inkscape:connector-curvature="0" />
    <path
       style="color:#000000;fill:none;stroke:#000000;stroke-width:3;stroke-linecap:butt;stroke-linejoin:round;stroke-miterlimit:4;stroke-opacity:1;stroke-dasharray:none;stroke-dashoffset:0;marker:none;visibility:visible;display:inline;overflow:visible;enable-background:accumulate"
       d="M 936.80862,166.79487 423.4491,172.59554"
       id="path5687"
       inkscape:connector-curvature="0" />
    <path
       style="color:#000000;fill:none;stroke:#000000;stroke-width:3;stroke-linecap:butt;stroke-linejoin:round;stroke-miterlimit:4;stroke-opacity:1;stroke-dasharray:none;stroke-dashoffset:0;marker:none;visibility:visible;display:inline;overflow:visible;enable-background:accumulate"
       d="m 942.60929,204.49924 -518.25986,1.299"
       id="path5689"
       inkscape:connector-curvature="0"
       sodipodi:nodetypes="cc" />
    <path
       style="color:#000000;fill:none;stroke:#000000;stroke-width:3;stroke-linecap:butt;stroke-linejoin:round;stroke-miterlimit:4;stroke-opacity:1;stroke-dasharray:none;stroke-dashoffset:0;marker:none;visibility:visible;display:inline;overflow:visible;enable-background:accumulate"
       d="M 414.74809,422.02447 945.50963,410.42312"
       id="path5691"
       inkscape:connector-curvature="0" />
    <path
       style="color:#000000;fill:none;stroke:#000000;stroke-width:3;stroke-linecap:butt;stroke-linejoin:round;stroke-miterlimit:4;stroke-opacity:1;stroke-dasharray:none;stroke-dashoffset:0;marker:none;visibility:visible;display:inline;overflow:visible;enable-background:accumulate"
       d="M 420.54876,688.8554 936.80862,674.35372"
       id="path5693"
       inkscape:connector-curvature="0" />
    <path
       style="color:#000000;fill:#ffff00;stroke:#000000;stroke-width:3;stroke-linecap:butt;stroke-linejoin:round;stroke-miterlimit:4;stroke-opacity:1;stroke-dasharray:none;stroke-dashoffset:0;marker:none;visibility:visible;display:inline;overflow:visible;enable-background:accumulate"
       d="m 1384.1855,359.66721 c -13.1808,38.28197 -71.0505,81.46797 -69.6081,69.60807 5.34,-43.90729 15.5038,-86.832 20.3023,-127.6148 2.254,-19.15698 30.3455,-38.34942 47.8556,-52.20605 -1.3219,36.50871 0.9997,75.97923 1.4502,110.21278 z"
       id="path4710"
       inkscape:connector-curvature="0"
       sodipodi:nodetypes="csscc" />
    <path
       style="color:#000000;fill:#df000e;fill-opacity:1;fill-rule:nonzero;stroke:#000000;stroke-width:3;stroke-linecap:round;stroke-linejoin:round;stroke-miterlimit:4;stroke-opacity:1;stroke-dasharray:none;stroke-dashoffset:0;marker:none;visibility:visible;display:inline;overflow:visible;enable-background:accumulate"
       d="m 1317.1568,178.42371 90.75,65.1144 c 0,0 23.0767,-2.6533 41.8765,-8.35419 16.0086,-4.85449 25.8014,-8.5653 25.8014,-8.5653 l 2.0509,-12.57966 -25.6356,-29.46271 -14.3559,-32.81356 -50.603,-27.44297 c 0,0 -3.7654,-1.23794 -7.2095,-0.69412 l -54.9529,7.03397 c -2.6971,0.34523 -4.6292,2.40842 -4.8269,5.30769 z"
       id="path5549"
       inkscape:connector-curvature="0"
       sodipodi:nodetypes="ccsccccccssc" />
    <path
       style="color:#000000;fill:#df000e;fill-opacity:1;fill-rule:nonzero;stroke:#000000;stroke-width:3;stroke-linecap:round;stroke-linejoin:round;stroke-miterlimit:4;stroke-opacity:1;stroke-dasharray:none;stroke-dashoffset:0;marker:none;visibility:visible;display:inline;overflow:visible;enable-background:accumulate"
       d="m 1321.31,174.47218 -47.1695,10.76695 c 0,0 6.7168,10.259 11.7924,13.33051 3.7715,2.28239 8.4798,2.51909 12.8403,3.16749 18.4448,2.74276 55.8631,2.98505 55.8631,2.98505 2.196,-11.98011 -21.9915,-24.61804 -33.3263,-30.25 z"
       id="path5551"
       inkscape:connector-curvature="0"
       sodipodi:nodetypes="ccsscc" />
    <path
       style="color:#000000;fill:none;stroke:#000000;stroke-width:3;stroke-linecap:butt;stroke-linejoin:round;stroke-miterlimit:4;stroke-opacity:1;stroke-dasharray:none;stroke-dashoffset:0;marker:none;visibility:visible;display:inline;overflow:visible;enable-background:accumulate"
       d="m 1409.2009,242.20358 0.7251,-11.60134 c 0,0 25.4935,-4.67738 38.5269,-7.92124 12.5553,-3.12487 28.1808,-9.11824 28.1808,-9.11824"
       id="path5570"
       inkscape:connector-curvature="0"
       sodipodi:nodetypes="ccsc" />
    <path
       style="color:#000000;fill:none;stroke:#000000;stroke-width:3;stroke-linecap:round;stroke-linejoin:round;stroke-miterlimit:4;stroke-opacity:1;stroke-dasharray:none;stroke-dashoffset:0;marker:none;visibility:visible;display:inline;overflow:visible;enable-background:accumulate"
       d="m 1409.926,229.87715 -25.0154,-34.07895 -10.5137,-29.3659 -50.0308,-31.54116"
       id="path5572"
       inkscape:connector-curvature="0" />
    <path
       style="color:#000000;fill:#ffffff;stroke:#000000;stroke-width:3;stroke-linecap:butt;stroke-linejoin:round;stroke-miterlimit:4;stroke-opacity:1;stroke-dasharray:none;stroke-dashoffset:0;marker:none;visibility:visible;display:inline;overflow:visible;enable-background:accumulate"
       d="m 1375.4845,167.51992 9.9699,29.54718 c 0,0 21.416,-2.54579 35.001,-5.62755 10.3535,-2.34869 30.6191,-8.76795 30.6191,-8.76795 l -12.8702,-29.29082"
       id="path5576"
       inkscape:connector-curvature="0"
       sodipodi:nodetypes="ccscc" />
    <path
       style="color:#000000;fill:#df000e;fill-opacity:1;fill-rule:nonzero;stroke:#000000;stroke-width:3;stroke-linecap:round;stroke-linejoin:round;stroke-miterlimit:4;stroke-opacity:1;stroke-dasharray:none;stroke-dashoffset:0;marker:none;visibility:visible;display:inline;overflow:visible;enable-background:accumulate"
       d="m 1438.9293,152.29316 c 0.8018,3.89454 4.4784,8.18029 0.9064,10.69499 -2.9161,2.05284 -5.1102,-2.35809 -10.5137,-0.54382 -3.9438,1.32414 -5.6554,4.85776 -9.6074,6.8883 -1.2577,0.64623 -2.6112,-0.20829 -3.9879,-3.26287 -0.5546,1.38651 0.9469,3.58159 -1.4502,3.62542 -4.5704,0.0836 -8.3115,-2.96689 -13.7766,-1.81271 -10.4504,2.20702 -11.7686,5.5742 -17.402,7.61338 -1.8091,0.65485 -7.9225,-1.65213 -5.4381,-3.08161 -1.0843,-1.90811 -2.026,-4.45666 -2.5379,-6.8883"
       id="path5578"
       inkscape:connector-curvature="0"
       sodipodi:nodetypes="cssscssscc" />
    <path
       style="color:#000000;fill:none;stroke:#000000;stroke-width:3;stroke-linecap:round;stroke-linejoin:round;stroke-miterlimit:4;stroke-opacity:1;stroke-dasharray:none;stroke-dashoffset:0;marker:none;visibility:visible;display:inline;overflow:visible;enable-background:accumulate"
       d="m 1378.0223,164.98213 c 0,0 18.828,-3.10828 31.1887,-5.6839 8.8162,-1.83706 26.0929,-7.00507 26.0929,-7.00507"
       id="path5574"
       inkscape:connector-curvature="0"
       sodipodi:nodetypes="csc" />
    <path
       style="color:#000000;fill:#ffffff;stroke:#000000;stroke-width:3;stroke-linecap:butt;stroke-linejoin:round;stroke-miterlimit:4;stroke-opacity:1;stroke-dasharray:none;stroke-dashoffset:0;marker:none;visibility:visible;display:inline;overflow:visible;enable-background:accumulate"
       d="m 1431.1878,229.63901 c 4.0689,3.1195 8.6983,5.81063 12.3354,5.14461 10.9789,-2.01045 13.0024,-11.34204 16.6148,-12.33857 -6.6157,2.92699 -7.1082,3.97192 -12.8702,5.98194 -5.7498,-0.61472 -10.9795,2.21958 -16.08,1.21202 z"
       id="path5603"
       inkscape:connector-curvature="0"
       sodipodi:nodetypes="csccc" />
    <path
       style="color:#000000;fill:#ff6600;fill-opacity:1;fill-rule:nonzero;stroke:#000000;stroke-width:3;stroke-linecap:round;stroke-linejoin:round;stroke-miterlimit:4;stroke-opacity:1;stroke-dasharray:none;stroke-dashoffset:0;marker:none;visibility:visible;display:inline;overflow:visible;enable-background:accumulate"
       d="m 1396.4589,174.29449 c -5.6392,-0.0122 -6.4113,5.56099 -5.4758,9.90237 0.9536,4.42501 5.3358,6.56756 8.5263,5.76046 4.7423,-1.19966 4.9622,-6.8033 4.4035,-8.95203 -1.4272,-5.48917 -4.6382,-6.70473 -7.454,-6.7108 z"
       id="path5605"
       inkscape:connector-curvature="0"
       sodipodi:nodetypes="sssss" />
    <path
       style="color:#000000;fill:#ff6600;fill-opacity:1;fill-rule:nonzero;stroke:#000000;stroke-width:3;stroke-linecap:round;stroke-linejoin:round;stroke-miterlimit:4;stroke-opacity:1;stroke-dasharray:none;stroke-dashoffset:0;marker:none;visibility:visible;display:inline;overflow:visible;enable-background:accumulate"
       d="m 1430.5909,168.60755 c -4.7606,-0.36911 -5.7912,5.10219 -5.0757,7.43211 1.9282,6.27863 4.9261,7.2815 7.4322,6.8883 4.8482,-0.76067 4.4617,-6.39515 4.1693,-7.61338 -1.5236,-6.34693 -4.5592,-6.55455 -6.5258,-6.70703 z"
       id="path5607"
       inkscape:connector-curvature="0"
       sodipodi:nodetypes="sssss" />
    <path
       style="color:#000000;fill:#df000e;fill-opacity:1;fill-rule:nonzero;stroke:#000000;stroke-width:3;stroke-linecap:round;stroke-linejoin:round;stroke-miterlimit:4;stroke-opacity:1;stroke-dasharray:none;stroke-dashoffset:0;marker:none;visibility:visible;display:inline;overflow:visible;enable-background:accumulate"
       d="m 1351.5568,127.6403 2.9003,-35.52912 16.6769,5.80067 18.1271,42.77996 c -5.1185,2.48764 -24.3971,-4.82251 -37.7043,-13.05151 z"
       id="path5655"
       inkscape:connector-curvature="0"
       sodipodi:nodetypes="ccccc" />
    <path
       style="color:#000000;fill:#ffffff;stroke:#000000;stroke-width:3;stroke-linecap:butt;stroke-linejoin:round;stroke-miterlimit:4;stroke-opacity:1;stroke-dasharray:none;stroke-dashoffset:0;marker:none;visibility:visible;display:inline;overflow:visible;enable-background:accumulate"
       d="m 1414.8284,233.79658 c -0.055,1.56124 -0.1684,2.94674 -0.2564,4.48623 3.9473,1.47214 9.2326,-0.55954 12.6897,-0.76906 -10e-5,-1.75177 0,-3.88806 0,-5.63983 -4.4286,0.94985 -8.493,1.43521 -12.4333,1.92266 z"
       id="path5663"
       inkscape:connector-curvature="0"
       sodipodi:nodetypes="ccccc" />
    <path
       style="color:#000000;fill:#ffffff;stroke:#000000;stroke-width:3;stroke-linecap:butt;stroke-linejoin:round;stroke-miterlimit:4;stroke-opacity:1;stroke-dasharray:none;stroke-dashoffset:0;marker:none;visibility:visible;display:inline;overflow:visible;enable-background:accumulate"
       d="m 1463.536,222.13239 c -0.4733,1.6436 -0.2989,3.28684 -0.3845,4.99894 2.8524,0.34468 6.7903,-1.86521 8.7161,-2.3072 0.827,-1.61703 0.5151,-3.34848 0.7691,-4.99894 -3.2496,0.54026 -6.4876,1.78459 -9.1007,2.3072 z"
       id="path5665"
       inkscape:connector-curvature="0"
       sodipodi:nodetypes="ccccc" />
    <path
       style="color:#000000;fill:#ffffff;stroke:#000000;stroke-width:3;stroke-linecap:round;stroke-linejoin:round;stroke-miterlimit:4;stroke-opacity:1;stroke-dasharray:none;stroke-dashoffset:0;marker:none;visibility:visible;display:inline;overflow:visible;enable-background:accumulate"
       d="m 1482.7969,240.75342 c 10.4878,9.85392 -6.2427,32.34153 -12.3264,42.77995 l -18.1271,-5.07558 -4.3505,49.30571 70.3331,-29.72844 -20.3023,-7.25084 c 15.1343,-28.31007 1.8693,-40.37245 -15.2268,-50.0308 z"
       id="path5667"
       inkscape:connector-curvature="0"
       sodipodi:nodetypes="ccccccc" />
    <path
       style="color:#000000;fill:#000000;stroke:none;stroke-width:3;marker:none;visibility:visible;display:inline;overflow:visible;enable-background:accumulate"
       d="m 1396.017,180.1392 c -1.177,0.25545 -1.5629,2.09568 -1.3611,3.23673 0.2503,1.41499 1.835,2.75391 2.7418,2.47921 1.2945,-0.39208 2.1388,-1.60858 1.5707,-3.399 -0.7589,-2.39135 -1.9081,-2.54338 -2.9514,-2.31694 z"
       id="path5669"
       inkscape:connector-curvature="0"
       sodipodi:nodetypes="sssss" />
    <path
       style="color:#000000;fill:#000000;stroke:none;stroke-width:3;marker:none;visibility:visible;display:inline;overflow:visible;enable-background:accumulate"
       d="m 1431.5673,178.42364 c 1.1013,-0.46175 0.5183,-2.37684 0.3237,-2.80296 -0.7596,-1.66307 -1.431,-1.73081 -2.1029,-1.51811 -1.4119,0.44696 -0.9261,2.17537 -0.5945,2.98524 0.6075,1.48318 1.8208,1.56764 2.3737,1.33583 z"
       id="path5671"
       inkscape:connector-curvature="0"
       sodipodi:nodetypes="sssss" />
    <path
       style="color:#000000;fill:none;stroke:#000000;stroke-width:3;stroke-linecap:butt;stroke-linejoin:round;stroke-miterlimit:4;stroke-opacity:1;stroke-dasharray:none;stroke-dashoffset:0;marker:none;visibility:visible;display:inline;overflow:visible;enable-background:accumulate"
       d="m 1060.2881,186.6271 336.339,-242.000005"
       id="path5675"
       inkscape:connector-curvature="0" />
    <path
       style="color:#000000;fill:none;stroke:#000000;stroke-width:3;stroke-linecap:butt;stroke-linejoin:round;stroke-miterlimit:4;stroke-opacity:1;stroke-dasharray:none;stroke-dashoffset:0;marker:none;visibility:visible;display:inline;overflow:visible;enable-background:accumulate"
       d="M 1062.339,155.86438 1376.1186,-53.322058"
       id="path5677"
       inkscape:connector-curvature="0" />
    <path
       style="color:#000000;fill:none;stroke:#000000;stroke-width:3;stroke-linecap:butt;stroke-linejoin:round;stroke-miterlimit:4;stroke-opacity:1;stroke-dasharray:none;stroke-dashoffset:0;marker:none;visibility:visible;display:inline;overflow:visible;enable-background:accumulate"
       d="m 1462.2542,20.508473 82.0339,26.661017"
       id="path6105"
       inkscape:connector-curvature="0" />
    <path
       style="color:#000000;fill:none;stroke:#000000;stroke-width:3;stroke-linecap:butt;stroke-linejoin:round;stroke-miterlimit:4;stroke-opacity:1;stroke-dasharray:none;stroke-dashoffset:0;marker:none;visibility:visible;display:inline;overflow:visible;enable-background:accumulate"
       d="m 1488.9153,-34.864409 71.7796,20.508475"
       id="path6107"
       inkscape:connector-curvature="0" />
  </g>
  <path
     style="color:#000000;fill:#ffff00;stroke:#000000;stroke-width:3;stroke-linecap:round;stroke-linejoin:round;stroke-miterlimit:4;stroke-opacity:1;stroke-dasharray:none;stroke-dashoffset:0;marker:none;visibility:visible;display:inline;overflow:visible;enable-background:accumulate"
     d="m 1229.7426,433.6258 c -22.4965,1.5126 -46.3791,-1.00824 -66.7077,-1.45017 -11.5425,11.40782 -17.3483,31.63504 -24.6529,44.95521 -5.4378,12.79509 36.6802,41.16039 40.6047,56.55656"
     id="path4708"
     inkscape:connector-curvature="0"
     sodipodi:nodetypes="cccc" />
  <path
     style="color:#000000;fill:#ffff00;stroke:#000000;stroke-width:3;stroke-linecap:round;stroke-linejoin:round;stroke-miterlimit:4;stroke-opacity:1;stroke-dasharray:none;stroke-dashoffset:0;marker:none;visibility:visible;display:inline;overflow:visible;enable-background:accumulate"
     d="m 1086.1759,750.89094 c 42.3298,17.83502 136.0283,28.53817 208.2965,27.69895 6.1879,-0.0719 11.0521,-4.27167 12.477,-6.42008 62.5351,-94.29142 117.3497,-204.51054 163.5211,-301.56473 l -8.701,-90.6355 c -0.7263,-7.56575 -4.6781,-8.0939 -8.701,-8.70101 -58.2926,-8.7972 -91.9286,-13.8983 -150.8175,-20.30235 -13.9153,-1.51326 -19.2056,0.73034 -23.2027,5.80067 l -111.8389,141.86766 c -10.4836,23.97285 -13.2375,52.91136 -28.7546,88.13858 -25.2621,53.38314 -43.1553,87.33971 -63.8802,129.63546 -10.9325,15.67426 10.1282,31.53611 11.6013,34.48235 z"
     id="path4368"
     inkscape:connector-curvature="0"
     sodipodi:nodetypes="csscsssscccc" />
  <path
     style="color:#000000;fill:#ffffff;stroke:#000000;stroke-width:3;stroke-linecap:round;stroke-linejoin:round;stroke-miterlimit:4;stroke-opacity:1;stroke-dasharray:none;stroke-dashoffset:0;marker:none;visibility:visible;display:inline;overflow:visible;enable-background:accumulate"
     d="m 1355.6102,521.94068 c -2.0536,27.5629 -13.4095,74.61471 -19.6305,99.78501 -67.3081,8.07004 -147.2146,-0.54787 -200.498,-30.75665 l 32.4759,-92.61311"
     id="path4370"
     inkscape:connector-curvature="0"
     sodipodi:nodetypes="cccc" />
  <path
     style="color:#000000;fill:none;stroke:#000000;stroke-width:3;stroke-linecap:round;stroke-linejoin:round;stroke-miterlimit:4;stroke-opacity:1;stroke-dasharray:none;stroke-dashoffset:0;marker:none;visibility:visible;display:inline;overflow:visible;enable-background:accumulate"
     d="m 1337.3767,621.65004 c -16.5,45.9514 -25.9792,87.68416 -41.3511,129.82649 -2.7563,7.5564 1.7265,17.22335 4.8632,22.81438"
     id="path4374"
     inkscape:connector-curvature="0"
     sodipodi:nodetypes="csc" />
  <path
     style="color:#000000;fill:none;stroke:#000000;stroke-width:3;stroke-linecap:round;stroke-linejoin:round;stroke-miterlimit:4;stroke-opacity:1;stroke-dasharray:none;stroke-dashoffset:0;marker:none;visibility:visible;display:inline;overflow:visible;enable-background:accumulate"
     d="m 1070.2241,728.00993 c 83.1182,18.98133 155.412,23.36017 220.1767,27.90507"
     id="path4376"
     inkscape:connector-curvature="0"
     sodipodi:nodetypes="cc" />
  <path
     style="color:#000000;fill:#ffff00;stroke:#000000;stroke-width:3;stroke-linecap:butt;stroke-linejoin:round;stroke-miterlimit:4;stroke-opacity:1;stroke-dasharray:none;stroke-dashoffset:0;marker:none;visibility:visible;display:inline;overflow:visible;enable-background:accumulate"
     d="m 1454.5187,469.88 c 30.2437,-0.9149 100.5859,3.16386 124.7144,4.35051 -11.7627,27.48626 -21.4578,54.57649 -29.0033,69.60807 -8.1539,16.24355 -111.0533,30.56997 -143.5667,47.85555 C 1392.8924,563.3548 1431.5987,505.06 1454.5187,469.88 z"
     id="path4706"
     inkscape:connector-curvature="0"
     sodipodi:nodetypes="ccscc" />
  <path
     style="color:#000000;fill:none;stroke:#000000;stroke-width:3;stroke-linecap:butt;stroke-linejoin:round;stroke-miterlimit:4;stroke-opacity:1;stroke-dasharray:none;stroke-dashoffset:0;marker:none;visibility:visible;display:inline;overflow:visible;enable-background:accumulate"
     d="m 1453.0254,383.50847 c -34.5843,42.27834 -56.0361,84.1031 -83.0593,130.22882"
     id="path4712"
     inkscape:connector-curvature="0" />
  <path
     style="color:#000000;fill:#80003f;fill-opacity:1;fill-rule:nonzero;stroke:#000000;stroke-width:3;stroke-linecap:round;stroke-linejoin:round;stroke-miterlimit:4;stroke-opacity:1;stroke-dasharray:none;stroke-dashoffset:0;marker:none;visibility:visible;display:inline;overflow:visible;enable-background:accumulate"
     d="m 1181.8009,550.65254 c -6.0576,23.16672 12.4401,31.94024 19.483,32.81356 12.7158,1.57676 21.3777,-13.40169 23.0721,-22.04661 3.8315,-19.54817 -7.8863,-29.6595 -14.356,-31.27543 -15.7311,-3.92911 -25.9458,11.89094 -28.1991,20.50848 z"
     id="path4718"
     inkscape:connector-curvature="0"
     sodipodi:nodetypes="sssss" />
  <path
     style="color:#000000;fill:#80003f;fill-opacity:1;fill-rule:nonzero;stroke:#000000;stroke-width:3;stroke-linecap:round;stroke-linejoin:round;stroke-miterlimit:4;stroke-opacity:1;stroke-dasharray:none;stroke-dashoffset:0;marker:none;visibility:visible;display:inline;overflow:visible;enable-background:accumulate"
     d="m 1265.8856,572.18644 c -2.5275,21.37392 9.9041,26.99364 19.4831,27.17373 15.0462,0.28287 22.1748,-15.73997 23.5847,-23.58475 2.9751,-16.5543 -4.2067,-29.88479 -14.4803,-30.88711 -17.6901,-1.72591 -26.603,10.51638 -28.5875,27.29813 z"
     id="path4720"
     inkscape:connector-curvature="0"
     sodipodi:nodetypes="sssss" />
  <path
     style="color:#000000;fill:#ffff00;stroke:#000000;stroke-width:3;stroke-linecap:round;stroke-linejoin:round;stroke-miterlimit:4;stroke-opacity:1;stroke-dasharray:none;stroke-dashoffset:0;marker:none;visibility:visible;display:inline;overflow:visible;enable-background:accumulate"
     d="m 1357.661,518.42899 c -2.923,15.58922 -8.9271,46.90557 -17.505,40.78948 -12.5563,-8.95269 -29.0058,-19.49083 -45.1412,-19.28923 -19.5775,0.24462 -36.2499,15.33214 -36.8199,-3.63242 -1.3843,2.30729 -5.6099,9.37741 -11.2281,6.62882 -22.4615,-10.98881 -42.4575,-30.99599 -80.8735,-15.71189 -14.5597,5.79273 -2.3584,-22.95313 -1.2119,-27.83219"
     id="path4716"
     inkscape:connector-curvature="0"
     sodipodi:nodetypes="csscssc" />
  <path
     style="color:#000000;fill:none;stroke:#000000;stroke-width:3;stroke-linecap:round;stroke-linejoin:round;stroke-miterlimit:4;stroke-opacity:1;stroke-dasharray:none;stroke-dashoffset:0;marker:none;visibility:visible;display:inline;overflow:visible;enable-background:accumulate"
     d="m 1171.7359,498.88337 c 63.8028,17.71305 122.2108,17.44854 186.6167,19.101"
     id="path4372"
     inkscape:connector-curvature="0"
     sodipodi:nodetypes="cc" />
  <path
     style="color:#000000;fill:#000000;stroke:none;stroke-width:3;marker:none;visibility:visible;display:inline;overflow:visible;enable-background:accumulate"
     d="m 1195.2971,554.65679 c -0.9354,4.83417 2.2323,10.79662 5.3133,11.31081 5.9925,1.00006 8.63,-3.87473 9.5639,-8.36016 0.9536,-4.57958 0.436,-10.76512 -4.959,-11.96652 -3.5854,-0.79844 -8.827,3.37608 -9.9182,9.01587 z"
     id="path4739"
     inkscape:connector-curvature="0"
     sodipodi:nodetypes="sssss" />
  <path
     style="color:#000000;fill:#000000;stroke:none;stroke-width:3;marker:none;visibility:visible;display:inline;overflow:visible;enable-background:accumulate"
     d="m 1279.9547,567.04127 c -1.6283,4.99748 0.3523,11.27961 3.9879,12.32643 6.7287,1.93746 9.4852,-4.50233 10.3325,-8.33847 1.1519,-5.21568 -0.5853,-11.35737 -4.3505,-12.32643 -5.3418,-1.37483 -8.8137,4.78988 -9.9699,8.33847 z"
     id="path4741"
     inkscape:connector-curvature="0"
     sodipodi:nodetypes="sssss" />
  <path
     style="color:#000000;fill:#000000;stroke:#000000;stroke-width:3;stroke-linecap:butt;stroke-linejoin:round;stroke-miterlimit:4;stroke-opacity:1;stroke-dasharray:none;stroke-dashoffset:0;marker:none;visibility:visible;display:inline;overflow:visible;enable-background:accumulate"
     d="m 1168.9831,526.04237 c 29.2283,-14.95362 53.4173,7.14562 77.4194,15.89407 -11.4851,-14.83571 -23.1487,-22.38613 -37.9406,-26.14831 -18.5776,-4.72502 -33.8496,8.52795 -39.4788,10.25424 z"
     id="path5537"
     inkscape:connector-curvature="0"
     sodipodi:nodetypes="ccsc" />
  <path
     style="color:#000000;fill:#000000;stroke:#000000;stroke-width:3;stroke-linecap:butt;stroke-linejoin:round;stroke-miterlimit:4;stroke-opacity:1;stroke-dasharray:none;stroke-dashoffset:0;marker:none;visibility:visible;display:inline;overflow:visible;enable-background:accumulate"
     d="m 1267.9365,545.52543 c 17.5586,-11.94344 53.9336,-7.26754 72.2923,12.30507 -10.0196,-12.94274 -20.8228,-27.98283 -33.8389,-28.19915 -14.1736,-0.23556 -30.7128,12.99136 -38.4534,15.89408 z"
     id="path5539"
     inkscape:connector-curvature="0"
     sodipodi:nodetypes="ccsc" />
  <path
     style="color:#000000;fill:none;stroke:#000000;stroke-width:5;stroke-linecap:round;stroke-linejoin:round;stroke-miterlimit:4;stroke-opacity:1;stroke-dasharray:none;stroke-dashoffset:0;marker:none;visibility:visible;display:inline;overflow:visible;enable-background:accumulate"
     d="m 1145.6328,750.48754 c 16.6979,26.73724 84.9447,18.92549 81.2094,7.25084"
     id="path5541"
     inkscape:connector-curvature="0"
     sodipodi:nodetypes="cc" />
  <path
     style="color:#000000;fill:#ffffff;stroke:#000000;stroke-width:3;stroke-linecap:butt;stroke-linejoin:round;stroke-miterlimit:4;stroke-opacity:1;stroke-dasharray:none;stroke-dashoffset:0;marker:none;visibility:visible;display:inline;overflow:visible;enable-background:accumulate"
     d="m 1082.5505,736.71094 c 3.3271,3.93158 3.9723,6.45495 5.8007,9.4261 12.2338,4.35604 21.745,5.87701 26.8281,7.25084 0.7601,-2.80938 -4.2296,-7.25085 -3.9879,-10.15118 -10.5828,-2.67834 -19.0716,-4.23744 -28.6409,-6.52576 z"
     id="path5543"
     inkscape:connector-curvature="0"
     sodipodi:nodetypes="ccccc" />
  <path
     style="color:#000000;fill:#ffffff;stroke:#000000;stroke-width:3;stroke-linecap:butt;stroke-linejoin:round;stroke-miterlimit:4;stroke-opacity:1;stroke-dasharray:none;stroke-dashoffset:0;marker:none;visibility:visible;display:inline;overflow:visible;enable-background:accumulate"
     d="m 1242.4316,759.55109 c 0.7751,2.58868 1.3293,7.85508 1.8127,10.51372 11.5868,2.49429 24.7373,2.33984 36.2542,2.17525 0,-2.90034 0,-5.80067 0,-8.70101 -12.6324,-1.34455 -31.0372,-1.92177 -38.0669,-3.98796 z"
     id="path5545"
     inkscape:connector-curvature="0"
     sodipodi:nodetypes="ccccc" />
  <path
     style="color:#000000;fill:none;stroke:#000000;stroke-width:3;stroke-linecap:butt;stroke-linejoin:round;stroke-miterlimit:4;stroke-opacity:1;stroke-dasharray:none;stroke-dashoffset:0;marker:none;visibility:visible;display:inline;overflow:visible;enable-background:accumulate"
     d="m 1371.8591,527.16165 -9.4261,62.35723 c 15.5062,-13.97928 31.8085,-42.54744 35.5291,-53.65623 -1.5908,-8.52706 -6.2558,-21.65459 -9.4261,-32.62878 -4.5823,10.78101 -13.2686,19.03755 -16.6769,23.92778 z"
     id="path5547"
     inkscape:connector-curvature="0"
     sodipodi:nodetypes="ccccc" />
  <path
     style="color:#000000;fill:none;stroke:#000000;stroke-width:3;stroke-linecap:butt;stroke-linejoin:round;stroke-miterlimit:4;stroke-opacity:1;stroke-dasharray:none;stroke-dashoffset:0;marker:none;visibility:visible;display:inline;overflow:visible;enable-background:accumulate"
     d="m 1060.2881,-53.322036 1.4407,873.152546"
     id="path5679"
     inkscape:connector-curvature="0"
     sodipodi:nodetypes="cc" />
</svg>
